<?xml version="1.0" encoding="utf-8"?>
<!-- Generator: Adobe Illustrator 16.0.0, SVG Export Plug-In . SVG Version: 6.00 Build 0)  -->
<!DOCTYPE svg PUBLIC "-//W3C//DTD SVG 1.1//EN" "http://www.w3.org/Graphics/SVG/1.1/DTD/svg11.dtd">
<svg version="1.1" id="Layer_1" xmlns="http://www.w3.org/2000/svg" xmlns:xlink="http://www.w3.org/1999/xlink" x="0px" y="0px"
	 width="841.89px" height="595.28px" viewBox="0 0 841.89 595.28" enable-background="new 0 0 841.89 595.28" xml:space="preserve">
<g>
	<rect x="128.5" y="164.28" width="260" height="22"/>
	<rect x="287.991" y="242.552" transform="matrix(-0.0031 1 -1 -0.0031 631.9334 -122.9)" width="178.476" height="22"/>
	<rect x="111.559" y="297.143" transform="matrix(1 0.0031 -0.0031 1 0.9524 -0.5249)" width="121.468" height="28.652"/>
	<rect x="111.559" y="331.643" transform="matrix(1 0.0031 -0.0031 1 1.0578 -0.5247)" width="121.468" height="28.651"/>
	<rect x="111.559" y="366.143" transform="matrix(1 0.0031 -0.0031 1 1.1632 -0.5246)" width="121.468" height="28.651"/>
	<path d="M111.516,199.28H353.5v161.2H250v-23.2h51c0,0,2.25-12.438,13.5-21.5c8.229-6.629,22-7.141,22-7.141l0.5-57.859
		c0,0-15.491-1.639-23.5-7c-12.488-8.359-12-21.5-12-21.5H163c0,0-3.554,12.434-11,20.5c-6,6.5-23.5,7.5-23.5,7.5v29.5h-16.984
		V199.28z"/>
	<path d="M183.662,279.78l54.158-0.949c0,0,14.18,41.449,15.43,41.449c12.251,0,24.162-24.25,24.162-40.5
		c0-25.405-20.987-46-46.875-46S183.662,254.375,183.662,279.78z"/>
</g>
</svg>
